<svg xmlns="http://www.w3.org/2000/svg" width="512" height="512" viewBox="0 0 512 512" fill="none">
  <rect width="512" height="512" rx="85" fill="#10b981"/>
  <path d="M256 128C208.88 128 171 165.88 171 213C171 245.33 192 273.55 221.33 284.45V384H290.67V284.45C320 273.55 341 245.33 341 213C341 165.88 303.12 128 256 128ZM256 256C232.45 256 213.33 236.88 213.33 213.33C213.33 189.78 232.45 170.67 256 170.67C279.55 170.67 298.67 189.78 298.67 213.33C298.67 236.88 279.55 256 256 256Z" fill="white"/>
</svg>
